<svg width="72" height="72" viewBox="0 0 72 72" fill="none" xmlns="http://www.w3.org/2000/svg">
<path d="M70 36C70 54.7775 54.7775 70 36 70C17.2223 70 2 54.7775 2 36C2 17.2223 17.2223 2 36 2C54.7775 2 70 17.2223 70 36Z" fill="#5096FF"/>
<path fill-rule="evenodd" clip-rule="evenodd" d="M36 21.75C37.2426 21.75 38.25 22.7574 38.25 24V35.0679L45.0909 41.9091C45.9696 42.7878 45.9696 44.2122 45.0909 45.0909C44.2122 45.9696 42.7878 45.9696 41.9091 45.0909L34.4091 37.5909C33.987 37.1691 33.75 36.5967 33.75 36V24C33.75 22.7574 34.7574 21.75 36 21.75Z" fill="white"/>
</svg>
