<svg width="28" height="28" viewBox="0 0 28 28" fill="none" xmlns="http://www.w3.org/2000/svg">
<g id="cross-solid-icon 1" clip-path="url(#clip0_199_227)">
<path id="Vector" d="M18.4581 14L27.0615 5.44444C28.3128 4.2 28.3128 2.33333 27.0615 1.08889C26.5922 0.466666 25.8101 0 25.0279 0C24.2458 0 23.4637 0.311111 22.838 0.933333L14.0782 9.64444L5.47486 1.08889C4.22346 -0.155556 2.18994 -0.155556 1.09497 1.08889C0.469273 1.55556 0 2.33333 0 3.26667C0 4.2 0.312849 4.82222 0.938547 5.44444L9.5419 14L0.938547 22.5556C0.469274 23.1778 0 23.9556 0 24.8889C0 25.6667 0.312849 26.4444 0.938547 27.0667C1.56425 27.6889 2.34637 28 3.12849 28C3.91061 28 4.69274 27.6889 5.31844 27.0667L13.9218 18.5111L22.5251 27.0667C23.7765 28.3111 25.8101 28.3111 26.905 27.0667C28.1564 25.8222 28.1564 23.8 26.905 22.7111L18.4581 14Z" fill="white"/>
</g>
<defs>
<clipPath id="clip0_199_227">
<rect width="28" height="28" fill="white"/>
</clipPath>
</defs>
</svg>
