<svg width="26" height="26" viewBox="0 0 26 26" fill="none" xmlns="http://www.w3.org/2000/svg">
<path d="M3.72651 24.6372L11.6423 15.8419C12.1175 15.3139 12.3552 15.0497 12.6292 14.9509C12.8702 14.8639 13.1298 14.8639 13.3708 14.9509C13.6448 15.0497 13.8825 15.3139 14.3577 15.8419L22.2207 24.5785M15.4 17L18.8423 13.1752C19.3175 12.6472 19.5552 12.3831 19.8292 12.2843C20.0702 12.1972 20.3298 12.1972 20.5708 12.2843C20.8448 12.3831 21.0825 12.6472 21.5577 13.1752L25 17M10.6 9C10.6 10.4728 9.52548 11.6667 8.2 11.6667C6.87452 11.6667 5.8 10.4728 5.8 9C5.8 7.52724 6.87452 6.33333 8.2 6.33333C9.52548 6.33333 10.6 7.52724 10.6 9ZM6.76 25H19.24C21.2562 25 22.2642 25 23.0344 24.564C23.7118 24.1805 24.2625 23.5687 24.6076 22.816C25 21.9603 25 20.8403 25 18.6V7.4C25 5.15979 25 4.03968 24.6076 3.18404C24.2625 2.43139 23.7118 1.81947 23.0344 1.43597C22.2642 1 21.2562 1 19.24 1H6.76C4.74381 1 3.73571 1 2.96564 1.43597C2.28825 1.81947 1.73752 2.43139 1.39238 3.18404C1 4.03968 1 5.15979 1 7.4V18.6C1 20.8403 1 21.9603 1.39238 22.816C1.73752 23.5687 2.28825 24.1805 2.96564 24.564C3.73571 25 4.74381 25 6.76 25Z" stroke="#7A08FA" stroke-width="1.7" stroke-linecap="round" stroke-linejoin="round"/>
<path d="M13 15L16 17L20 12.5L25 17.5L24.5 22.5L23.5 24.5H4.5L13 15Z" fill="#7A08FA"/>
<rect x="6" y="7" width="4" height="4" fill="#7A08FA"/>
</svg>
