<svg width="24" height="24" viewBox="0 0 24 24" fill="none" xmlns="http://www.w3.org/2000/svg">
<path fill-rule="evenodd" clip-rule="evenodd" d="M20.7273 3C22.5348 3 24 4.46907 24 6.28125V17.2188C24 19.031 22.5348 20.5 20.7273 20.5H3.27273C1.46525 20.5 0 19.031 0 17.2188V6.28125C0 4.46907 1.46525 3 3.27273 3H20.7273ZM19.9123 5.1875H4.08783L11.3241 10.9151C11.7204 11.2289 12.2796 11.2289 12.676 10.9151L19.9123 5.1875ZM2.18182 6.46587V17.2188C2.18182 17.8228 2.67024 18.3125 3.27273 18.3125H20.7273C21.3298 18.3125 21.8182 17.8228 21.8182 17.2188V6.4659L14.0279 12.6321C12.8389 13.5733 11.1611 13.5733 9.97211 12.6321L2.18182 6.46587Z" fill="#0F0F0F"/>
</svg>
