<svg width="24" height="24" viewBox="0 0 24 24" fill="none" xmlns="http://www.w3.org/2000/svg">
<path fill-rule="evenodd" clip-rule="evenodd" d="M14.3333 4C14.3333 1.79086 16.2734 0 18.6666 0C21.0599 0 23 1.79086 23 4C23 6.20914 21.0599 8 18.6666 8C17.4582 8 16.3661 7.54315 15.581 6.80816L9.5822 10.5954C9.63759 10.851 9.66671 11.115 9.66671 11.3846C9.66671 11.9186 9.55282 12.4291 9.34653 12.8957L15.9242 16.903C16.6707 16.3393 17.6259 16 18.6666 16C21.0599 16 23 17.7908 23 20C23 22.2091 21.0599 24 18.6666 24C16.2734 24 14.3333 22.2091 14.3333 20C14.3333 19.4214 14.4668 18.8706 14.7069 18.3733L8.18244 14.3984C7.42136 15.0118 6.42442 15.3846 5.33333 15.3846C2.9401 15.3846 1 13.5937 1 11.3846C1 9.17548 2.9401 7.38462 5.33333 7.38462C6.70952 7.38462 7.93457 7.9767 8.72776 8.89822L14.5415 5.2277C14.4063 4.84031 14.3333 4.42752 14.3333 4Z" fill="#7A08FA"/>
</svg>
