<svg width="28" height="28" viewBox="0 0 28 28" fill="none" xmlns="http://www.w3.org/2000/svg">
<path d="M25 8.9741H4C2.9 8.9741 2 8.0728 2 6.97122C2 5.86963 2.9 4.96834 4 4.96834H8C8.6 4.96834 9 4.56776 9 3.9669C9 3.36604 8.6 2.96546 8 2.96546H4C1.8 2.96546 0 4.76805 0 6.97122V22.9942C0 25.1974 1.8 27 4 27H25C26.7 27 28 25.6981 28 23.9957V11.9784C28 10.276 26.7 8.9741 25 8.9741ZM26 14.7824V21.1917C25.7 21.0915 25.4 20.9914 25 20.9914H21C18.5 20.5 18 19.6895 18 17.987C18 16.2846 19.3 14.9827 21 14.9827H25C25.4 14.9827 25.7 14.8826 26 14.7824Z" fill="#7A08FA"/>
<path d="M5 5.96979C4.4 5.96979 4 6.37036 4 6.97123C4 7.57209 4.4 7.97267 5 7.97267H9H24C24.3 7.97267 24.6 7.77238 24.8 7.57209C25 7.27166 25 6.97123 24.9 6.67079L22.9 1.6636C22.7 1.16288 22.1 0.862449 21.6 1.06274L8.8 5.96979H5Z" fill="#7A08FA"/>
<path d="M23 16.9856H21C20.4 16.9856 20 17.3862 20 17.987C20 18.5879 20.4 18.9885 21 18.9885H23C23.6 18.9885 24 18.5879 24 17.987C24 17.3862 23.6 16.9856 23 16.9856Z" fill="#7A08FA"/>
</svg>
