<svg width="194" height="28" viewBox="0 0 194 28" fill="none" xmlns="http://www.w3.org/2000/svg">
<g id="anorbank-logo 1" clip-path="url(#clip0_353_19)">
<g id="logo">
<g id="&#208;&#161;&#208;&#179;&#209;&#128;&#209;&#131;&#208;&#191;&#208;&#191;&#208;&#184;&#209;&#128;&#208;&#190;&#208;&#178;&#208;&#176;&#209;&#130;&#209;&#140; 2889">
<path id="&#208;&#154;&#208;&#190;&#208;&#189;&#209;&#130;&#209;&#131;&#209;&#128; 25069" d="M46.016 5.39302L53.332 23.12C52.3621 23.3305 51.3734 23.4427 50.381 23.455C49.8145 23.4536 49.249 23.4068 48.69 23.315L47.276 19.77H39.96L38.546 23.315C37.8523 23.395 37.1543 23.4324 36.456 23.427C35.6356 23.4517 34.8164 23.3481 34.028 23.12L41.406 5.39302C42.1884 5.26928 42.98 5.21374 43.772 5.22702C44.5234 5.21644 45.2743 5.27198 46.016 5.39302ZM41.374 16.309H45.862L44.202 12.177L43.586 10.447L43.033 12.178L41.374 16.309Z" fill="white"/>
<path id="&#208;&#154;&#208;&#190;&#208;&#189;&#209;&#130;&#209;&#131;&#209;&#128; 25070" d="M70.177 5.256C70.9585 5.25901 71.739 5.3148 72.513 5.423V23.232C71.0599 23.4759 69.5833 23.5508 68.113 23.455L60.489 13.265L59.843 12.204L59.966 13.488V23.316C59.2025 23.4249 58.4323 23.4807 57.661 23.483C56.9102 23.4748 56.1607 23.419 55.417 23.316V5.556C56.1091 5.36672 56.8209 5.25899 57.538 5.235C58.2962 5.18684 59.0571 5.20089 59.813 5.277L67.406 15.69L68.082 16.778L67.959 15.355V5.421C68.694 5.31785 69.4349 5.26274 70.177 5.256Z" fill="white"/>
<path id="&#208;&#154;&#208;&#190;&#208;&#189;&#209;&#130;&#209;&#131;&#209;&#128; 25071" d="M85.856 23.818C84.4537 23.8302 83.06 23.5987 81.737 23.134C80.5209 22.7089 79.3998 22.0498 78.437 21.194C77.5027 20.3542 76.7631 19.3204 76.27 18.165C75.7627 16.9537 75.5014 15.6537 75.5014 14.3405C75.5014 13.0273 75.7627 11.7272 76.27 10.516C76.7653 9.35773 77.5044 8.31984 78.437 7.47297C79.3985 6.60857 80.5195 5.94008 81.737 5.50497C83.0579 5.03037 84.4524 4.79337 85.856 4.80497C87.2634 4.79362 88.6622 5.02501 89.991 5.48897C91.2091 5.9096 92.3311 6.56915 93.291 7.42897C94.2174 8.27252 94.9513 9.30558 95.443 10.458C95.9631 11.6802 96.2246 12.9968 96.211 14.325C96.2191 15.6252 95.9575 16.9129 95.443 18.107C94.9476 19.2652 94.2085 20.303 93.276 21.15C92.3092 22.0174 91.181 22.6861 89.956 23.118C88.6408 23.5894 87.2531 23.8264 85.856 23.818ZM85.856 19.882C86.576 19.9131 87.2947 19.794 87.9661 19.5321C88.6376 19.2702 89.2472 18.8714 89.756 18.361C90.2579 17.8205 90.6469 17.1853 90.9003 16.4926C91.1538 15.8 91.2665 15.0637 91.232 14.327C91.2706 13.5834 91.1599 12.8397 90.9064 12.1396C90.6529 11.4396 90.2617 10.7974 89.756 10.251C88.6872 9.2809 87.2954 8.74351 85.852 8.74351C84.4086 8.74351 83.0168 9.2809 81.948 10.251C81.4425 10.7975 81.0515 11.4397 80.7982 12.1398C80.5449 12.8398 80.4343 13.5835 80.473 14.327C80.4384 15.0637 80.551 15.7999 80.8043 16.4925C81.0575 17.1852 81.4464 17.8204 81.948 18.361C82.4577 18.8724 83.0686 19.2719 83.7415 19.5338C84.4145 19.7957 85.1346 19.9143 85.856 19.882Z" fill="white"/>
<path id="&#208;&#154;&#208;&#190;&#208;&#189;&#209;&#130;&#209;&#131;&#209;&#128; 25072" d="M110.758 16.2249L115.369 23.1249C114.095 23.3836 112.796 23.496 111.496 23.4599L110.328 23.4319L106.271 17.1509H106.056L103.812 17.1229V23.3229C103.06 23.4467 102.299 23.5026 101.537 23.4899C100.755 23.499 99.973 23.4432 99.2 23.3229V5.67194C100.102 5.50461 101.178 5.36494 102.428 5.25294C103.678 5.14094 104.815 5.08528 105.84 5.08594C106.896 5.08506 107.95 5.17371 108.991 5.35094C109.946 5.49992 110.867 5.81646 111.711 6.28594C112.521 6.728 113.19 7.38932 113.641 8.19408C114.092 8.99883 114.307 9.91445 114.262 10.8359C114.252 11.494 114.148 12.1472 113.954 12.7759C113.727 13.5122 113.332 14.1858 112.801 14.7439C112.225 15.368 111.53 15.8714 110.758 16.2249ZM103.811 8.68795V13.6879L106.239 13.7159C107.142 13.786 108.038 13.5227 108.76 12.9759C109.029 12.7427 109.243 12.4527 109.386 12.127C109.53 11.8012 109.599 11.4478 109.59 11.0919C109.603 10.7425 109.531 10.3952 109.381 10.0793C109.231 9.7634 109.008 9.4882 108.729 9.27695C107.986 8.78149 107.099 8.54591 106.208 8.60694C105.407 8.60494 104.607 8.63161 103.808 8.68695L103.811 8.68795Z" fill="white"/>
<path id="&#208;&#154;&#208;&#190;&#208;&#189;&#209;&#130;&#209;&#131;&#209;&#128; 25073" d="M129.506 14.159C130.229 14.3894 130.901 14.7541 131.489 15.234C131.99 15.6334 132.377 16.1581 132.611 16.755C132.991 17.758 133.02 18.8602 132.693 19.8818C132.366 20.9033 131.703 21.7839 130.811 22.38C129.407 23.3387 127.25 23.818 124.34 23.818C122.157 23.8358 119.977 23.6686 117.823 23.318V5.69999C119.933 5.3172 122.073 5.1304 124.217 5.14199C129.443 5.14199 132.056 6.85432 132.056 10.279C132.113 11.1155 131.895 11.9478 131.434 12.6484C130.974 13.3491 130.297 13.8797 129.506 14.159ZM124.557 8.49199C123.9 8.49199 123.183 8.51998 122.405 8.57598V12.621H124.742C125.5 12.6831 126.257 12.4914 126.894 12.076C127.124 11.8797 127.305 11.6323 127.422 11.3536C127.54 11.075 127.59 10.7727 127.57 10.471C127.578 10.1835 127.511 9.89892 127.376 9.64474C127.242 9.39056 127.044 9.17538 126.802 9.01999C126.123 8.62429 125.341 8.44043 124.557 8.49199ZM124.803 20.468C127.119 20.468 128.277 19.6863 128.277 18.123C128.289 17.7988 128.217 17.4769 128.069 17.1885C127.92 16.9 127.7 16.6546 127.429 16.476C126.692 16.04 125.84 15.8358 124.985 15.89H122.403V20.385C123.183 20.4403 123.983 20.468 124.803 20.468Z" fill="white"/>
<path id="&#208;&#154;&#208;&#190;&#208;&#189;&#209;&#130;&#209;&#131;&#209;&#128; 25074" d="M145.492 5.39302L152.812 23.121C151.842 23.3315 150.853 23.4437 149.861 23.456C149.294 23.4546 148.729 23.4078 148.17 23.316L146.756 19.771H139.439L138.025 23.316C137.331 23.396 136.633 23.4334 135.935 23.428C135.114 23.4527 134.295 23.3492 133.506 23.121L140.884 5.39402C141.666 5.27005 142.457 5.21418 143.248 5.22702C143.999 5.21646 144.75 5.272 145.492 5.39302ZM140.85 16.309H145.338L143.678 12.177L143.063 10.446L142.512 12.177L140.85 16.309Z" fill="white"/>
<path id="&#208;&#154;&#208;&#190;&#208;&#189;&#209;&#130;&#209;&#131;&#209;&#128; 25075" d="M169.653 5.256C170.435 5.259 171.215 5.3148 171.989 5.423V23.232C170.536 23.4759 169.059 23.5508 167.589 23.455L159.965 13.265L159.32 12.204L159.443 13.488V23.316C158.679 23.4249 157.909 23.4807 157.137 23.483C156.386 23.4748 155.637 23.419 154.893 23.316V5.556C155.585 5.36671 156.297 5.25898 157.014 5.235C157.772 5.18684 158.533 5.20089 159.289 5.277L166.882 15.69L167.558 16.778L167.435 15.355V5.421C168.17 5.31786 168.911 5.26274 169.653 5.256Z" fill="white"/>
<path id="&#208;&#154;&#208;&#190;&#208;&#189;&#209;&#130;&#209;&#131;&#209;&#128; 25076" d="M185.608 13.7689L193.999 23.1489C192.848 23.3091 191.687 23.3836 190.525 23.3719L188.096 23.3159L182.04 16.4479L180.657 17.3689V23.3149C179.904 23.4275 179.143 23.4833 178.382 23.4819C177.611 23.4796 176.841 23.4238 176.077 23.3149V5.42094C176.809 5.30836 177.549 5.25253 178.29 5.25394C179.082 5.2562 179.873 5.312 180.657 5.42094V12.6789C182.003 11.6954 183.258 10.593 184.407 9.38494C185.573 8.11724 186.643 6.76414 187.607 5.33694C188.324 5.28161 189.092 5.25361 189.912 5.25294C190.939 5.24842 191.965 5.30418 192.986 5.41994C190.936 8.53935 188.452 11.3506 185.608 13.7689Z" fill="white"/>
</g>
<g id="&#208;&#161;&#208;&#179;&#209;&#128;&#209;&#131;&#208;&#191;&#208;&#191;&#208;&#184;&#209;&#128;&#208;&#190;&#208;&#178;&#208;&#176;&#209;&#130;&#209;&#140; 2894">
<g id="&#208;&#161;&#208;&#179;&#209;&#128;&#209;&#131;&#208;&#191;&#208;&#191;&#208;&#184;&#209;&#128;&#208;&#190;&#208;&#178;&#208;&#176;&#209;&#130;&#209;&#140; 2891">
<g id="&#208;&#161;&#208;&#179;&#209;&#128;&#209;&#131;&#208;&#191;&#208;&#191;&#208;&#184;&#209;&#128;&#208;&#190;&#208;&#178;&#208;&#176;&#209;&#130;&#209;&#140; 2890">
<path id="&#208;&#154;&#208;&#190;&#208;&#189;&#209;&#130;&#209;&#131;&#209;&#128; 25077" d="M17.017 14V17.1H13.931C13.111 17.0976 12.3256 16.7698 11.7473 16.1885C11.169 15.6072 10.8451 14.82 10.847 14C10.8446 13.1787 11.1683 12.3899 11.747 11.807C12.1785 11.3732 12.7295 11.0776 13.3296 10.958C13.9297 10.8384 14.5518 10.9001 15.1167 11.1353C15.6816 11.3705 16.1637 11.7686 16.5016 12.2788C16.8395 12.7889 17.0179 13.3881 17.014 14H17.017Z" fill="white"/>
</g>
</g>
<g id="&#208;&#161;&#208;&#179;&#209;&#128;&#209;&#131;&#208;&#191;&#208;&#191;&#208;&#184;&#209;&#128;&#208;&#190;&#208;&#178;&#208;&#176;&#209;&#130;&#209;&#140; 2893">
<g id="&#208;&#161;&#208;&#179;&#209;&#128;&#209;&#131;&#208;&#191;&#208;&#191;&#208;&#184;&#209;&#128;&#208;&#190;&#208;&#178;&#208;&#176;&#209;&#130;&#209;&#140; 2892">
<path id="&#208;&#154;&#208;&#190;&#208;&#189;&#209;&#130;&#209;&#131;&#209;&#128; 25078" d="M19.242 0H8.622C6.32981 0.00582775 4.1338 0.921851 2.51691 2.54661C0.90003 4.17137 -0.00531061 6.37181 3.47043e-07 8.664V19.336C-0.00504536 21.6281 0.900381 23.8284 2.51721 25.4531C4.13403 27.0778 6.3299 27.9939 8.622 28H27.863V8.664C27.8686 6.3719 26.9635 4.17146 25.3467 2.54667C23.73 0.921883 21.5341 0.00582756 19.242 0ZM21.742 21.845H13.932C11.8568 21.8394 9.8687 21.0098 8.40503 19.5387C6.94137 18.0675 6.12195 16.0752 6.127 14C6.12352 12.3852 6.61888 10.8087 7.54535 9.48616C8.47182 8.16358 9.78418 7.15943 11.303 6.611V4.265C11.3029 4.22879 11.3136 4.19337 11.3337 4.16326C11.3538 4.13316 11.3824 4.10973 11.4159 4.09599C11.4494 4.08225 11.4863 4.07881 11.5217 4.08611C11.5572 4.09342 11.5897 4.11114 11.615 4.137L12.868 5.416C12.8864 5.43476 12.9087 5.44931 12.9333 5.45864C12.9578 5.46798 12.9841 5.47188 13.0104 5.47007C13.0366 5.46827 13.0621 5.4608 13.0852 5.44818C13.1083 5.43557 13.1283 5.41811 13.144 5.397L13.787 4.534C13.8039 4.51124 13.826 4.49276 13.8513 4.48003C13.8767 4.4673 13.9046 4.46066 13.933 4.46066C13.9614 4.46066 13.9893 4.4673 14.0147 4.48003C14.04 4.49276 14.0621 4.51124 14.079 4.534L14.723 5.397C14.7386 5.41825 14.7586 5.43585 14.7817 5.44856C14.8047 5.46128 14.8303 5.4688 14.8566 5.47061C14.8829 5.47242 14.9092 5.46847 14.9338 5.45904C14.9584 5.44961 14.9807 5.43492 14.999 5.416L16.253 4.137C16.2783 4.11114 16.3108 4.09342 16.3463 4.08611C16.3817 4.07881 16.4186 4.08225 16.4521 4.09599C16.4856 4.10973 16.5142 4.13316 16.5343 4.16326C16.5544 4.19337 16.5651 4.22879 16.565 4.265V6.611C18.0833 7.16009 19.3951 8.16443 20.3213 9.48689C21.2475 10.8094 21.743 12.3855 21.74 14L21.742 21.845Z" fill="white"/>
</g>
</g>
</g>
</g>
</g>
<defs>
<clipPath id="clip0_353_19">
<rect width="194" height="28" fill="white"/>
</clipPath>
</defs>
</svg>
