<svg width="24" height="24" viewBox="0 0 24 24" fill="none" xmlns="http://www.w3.org/2000/svg">
<g clip-path="url(#clip0_304_20)">
<path d="M20.9613 1.13086C19.7944 0.371073 18.427 -0.0224119 17.0347 0.000986047H5.45663C4.72496 0.000582733 4.00068 0.147399 3.32694 0.432693C2.65319 0.717987 2.04374 1.13592 1.53488 1.66162C1.02603 2.18732 0.628168 2.81002 0.364995 3.49266C0.101821 4.17529 -0.0212851 4.9039 0.00300663 5.6351C0.0196542 6.28598 0.23867 6.91551 0.629616 7.43619C1.02056 7.95688 1.56402 8.34286 2.18446 8.54049V8.91239C1.54261 9.13905 0.987441 9.56021 0.59626 10.1172C0.205079 10.6742 -0.00263555 11.3394 0.00204556 12.02C0.00672667 12.7006 0.22357 13.3628 0.622376 13.9144C1.02118 14.466 1.58209 14.8794 2.227 15.0973C2.45441 17.5319 3.58245 19.794 5.39028 21.4406C7.1981 23.0873 9.55552 24 12.001 24C14.4465 24 16.8039 23.0873 18.6117 21.4406C20.4195 19.794 21.5476 17.5319 21.775 15.0973C22.4199 14.8794 22.9808 14.466 23.3796 13.9144C23.7784 13.3628 23.9952 12.7006 23.9999 12.02C24.0046 11.3394 23.7969 10.6742 23.4057 10.1172C23.0145 9.56021 22.4594 9.13905 21.8175 8.91239V8.7259H22.9082C23.1975 8.7259 23.4749 8.61099 23.6795 8.40646C23.884 8.20193 23.999 7.92453 23.999 7.63528V6.80205C23.9969 5.68011 23.7187 4.57592 23.1889 3.58689C22.6592 2.59786 21.8941 1.75438 20.9613 1.13086ZM3.10612 3.17903C3.40998 2.86238 3.77501 2.61075 4.17906 2.4394C4.5831 2.26805 5.01775 2.18055 5.45663 2.18221H17.0347C17.9926 2.15979 18.9355 2.4233 19.743 2.9391C20.3427 3.33951 20.8415 3.87347 21.2001 4.49906C21.5587 5.12465 21.7674 5.82484 21.8099 6.54467H16.8787C13.8405 6.54136 10.8444 5.83394 8.12564 4.47796C7.14398 3.98609 6.59862 5.06143 6.22778 5.32209C4.9789 6.57084 2.2379 7.17941 2.18446 5.56312C2.16877 5.12405 2.24237 4.68637 2.40079 4.27657C2.55921 3.86678 2.79916 3.4934 3.10612 3.17903ZM20.7268 13.0884C20.4375 13.0884 20.1601 13.2033 19.9555 13.4078C19.751 13.6123 19.6361 13.8897 19.6361 14.179C19.6361 16.2037 18.8317 18.1455 17.3998 19.5772C15.9679 21.0089 14.0259 21.8133 12.001 21.8133C9.97604 21.8133 8.03402 21.0089 6.60217 19.5772C5.17032 18.1455 4.36591 16.2037 4.36591 14.179C4.36591 13.8897 4.25099 13.6123 4.04644 13.4078C3.84189 13.2033 3.56446 13.0884 3.27518 13.0884C2.9859 13.0884 2.70847 12.9734 2.50392 12.7689C2.29937 12.5644 2.18446 12.287 2.18446 11.9977C2.18446 11.7085 2.29937 11.4311 2.50392 11.2266C2.70847 11.022 2.9859 10.9071 3.27518 10.9071C3.56446 10.9071 3.84189 10.7922 4.04644 10.5877C4.25099 10.3832 4.36591 10.1058 4.36591 9.81651V8.63319C5.69515 8.38417 6.91625 7.7341 7.86495 6.77043C10.6963 8.05558 13.7693 8.72223 16.8787 8.7259H19.6361V9.81651C19.6361 10.1058 19.751 10.3832 19.9555 10.5877C20.1601 10.7922 20.4375 10.9071 20.7268 10.9071C21.0161 10.9071 21.2935 11.022 21.498 11.2266C21.7026 11.4311 21.8175 11.7085 21.8175 11.9977C21.8175 12.287 21.7026 12.5644 21.498 12.7689C21.2935 12.9734 21.0161 13.0884 20.7268 13.0884ZM10.3649 13.0884C10.3649 13.4119 10.2689 13.7282 10.0892 13.9972C9.90939 14.2662 9.65387 14.4759 9.35491 14.5997C9.05596 14.7236 8.72699 14.756 8.40962 14.6928C8.09225 14.6297 7.80073 14.4739 7.57192 14.2451C7.34311 14.0163 7.18729 13.7248 7.12416 13.4075C7.06103 13.0902 7.09343 12.7612 7.21726 12.4623C7.34109 12.1634 7.55079 11.9079 7.81985 11.7281C8.0889 11.5484 8.40522 11.4524 8.72881 11.4524C9.16273 11.4524 9.57887 11.6248 9.8857 11.9316C10.1925 12.2384 10.3649 12.6545 10.3649 13.0884ZM16.9092 13.0884C16.9092 13.4119 16.8133 13.7282 16.6335 13.9972C16.4537 14.2662 16.1982 14.4759 15.8993 14.5997C15.6003 14.7236 15.2713 14.756 14.954 14.6928C14.6366 14.6297 14.3451 14.4739 14.1163 14.2451C13.8875 14.0163 13.7316 13.7248 13.6685 13.4075C13.6054 13.0902 13.6378 12.7612 13.7616 12.4623C13.8854 12.1634 14.0951 11.9079 14.3642 11.7281C14.6333 11.5484 14.9496 11.4524 15.2732 11.4524C15.7071 11.4524 16.1232 11.6248 16.43 11.9316C16.7369 12.2384 16.9092 12.6545 16.9092 13.0884Z" fill="black"/>
</g>
<defs>
<clipPath id="clip0_304_20">
<rect width="24" height="24" fill="white"/>
</clipPath>
</defs>
</svg>
