<svg width="72" height="72" viewBox="0 0 72 72" fill="none" xmlns="http://www.w3.org/2000/svg">
<g clip-path="url(#clip0_243_100)">
<path d="M30.5491 32.9028L28.0032 33.4734C27.9335 33.4889 27.9065 33.5316 27.9219 33.6022L28.6331 36.7808C28.6485 36.8515 28.6912 36.8775 28.7609 36.8621L31.3087 36.2924C32.3976 36.0492 32.9867 35.217 32.758 34.1979C32.5254 33.1614 31.6399 32.6596 30.5491 32.9028Z" fill="#50FF62"/>
<path d="M67.4361 37.3727C67.0991 36.4891 67.0991 35.5116 67.4361 34.6271L70.174 27.4398C70.8211 25.7444 70.1972 23.8301 68.6801 22.8391L62.2398 18.6336C61.4474 18.1162 60.8739 17.3248 60.6258 16.4122L58.6166 8.98654C58.1418 7.23688 56.5124 6.0531 54.7027 6.1431L47.0204 6.52672C46.0748 6.57327 45.1468 6.27191 44.4085 5.67805L38.4193 0.85377C37.0069 -0.28459 34.9938 -0.28459 33.5812 0.85377L27.5923 5.67819C26.854 6.27205 25.926 6.57341 24.9805 6.52686L17.298 6.14324C15.4884 6.05324 13.8589 7.23702 13.3841 8.98668L11.3752 16.4122C11.1271 17.3248 10.5536 18.1162 9.7612 18.6336L3.32086 22.8391C1.8038 23.8301 1.17984 25.7444 1.82503 27.4398L4.56469 34.6271C4.90177 35.5116 4.90177 36.489 4.56469 37.3727L1.82503 44.561C1.17984 46.2544 1.80366 48.1706 3.32086 49.1617L9.7612 53.3671C10.5536 53.8835 11.1271 54.6741 11.3752 55.5876L13.3844 63.0123C13.8592 64.7638 15.4886 65.9467 17.2983 65.8566L24.9808 65.4728C25.9263 65.4254 26.8543 65.7276 27.5926 66.3215L33.5815 71.147C34.994 72.2842 37.0072 72.2842 38.4196 71.147L44.4085 66.3215C45.1468 65.7276 46.0748 65.4254 47.0204 65.4728L54.7027 65.8566C56.5124 65.9466 58.1418 64.7638 58.6166 63.0123L60.6258 55.5876C60.8739 54.6741 61.4474 53.8835 62.2398 53.3671L68.6801 49.1617C70.1972 48.1706 70.8211 46.2544 70.174 44.561L67.4361 37.3727ZM23.5603 39.8343L18.9412 40.8671C18.8715 40.8825 18.8443 40.9253 18.8617 40.997L19.91 45.6857C19.9333 45.7904 19.8771 45.8775 19.7724 45.9009L18.0519 46.2865C17.9473 46.3098 17.8601 46.2546 17.8369 46.1499L15.2423 34.5576C15.2191 34.452 15.2752 34.3658 15.3799 34.3426L22.8607 32.6686C22.9674 32.6453 23.0525 32.6996 23.0778 32.8052L23.4149 34.3155C23.4382 34.4212 23.384 34.5065 23.2774 34.5306L17.7979 35.7562C17.7282 35.7717 17.7012 35.8153 17.7166 35.886L18.3967 38.9241C18.4123 38.9939 18.4549 39.0209 18.5247 39.0055L23.1438 37.9727C23.2504 37.9484 23.3376 38.0037 23.3608 38.1083L23.698 39.6186C23.7212 39.7239 23.6669 39.8101 23.5603 39.8343ZM36.8093 42.0887L34.8601 42.5256C34.7206 42.5565 34.6373 42.5197 34.5577 42.4083L31.2331 38.2649L29.1773 38.7242C29.1075 38.7397 29.0805 38.7833 29.096 38.854L30.1151 43.4024C30.1385 43.5079 30.0822 43.5942 29.9776 43.6174L28.257 44.003C28.1504 44.0262 28.0652 43.9709 28.0419 43.8665L25.4476 32.274C25.4243 32.1694 25.4786 32.0822 25.5852 32.0589L30.2043 31.0261C32.3996 30.5339 34.3409 31.6307 34.8117 33.7377C35.1624 35.3013 34.5367 36.7137 33.281 37.5303L36.883 41.8327C36.9799 41.9405 36.9333 42.0615 36.8093 42.0887ZM46.6095 39.8963L39.1286 41.5703C39.024 41.5935 38.9367 41.5394 38.9135 41.4338L36.321 29.8415C36.2959 29.7359 36.352 29.6507 36.4566 29.6273L43.9376 27.9533C44.0442 27.9291 44.1294 27.9844 44.1546 28.089L44.4916 29.6002C44.515 29.7048 44.4607 29.79 44.3541 29.8142L38.8748 31.0398C38.805 31.0562 38.778 31.0988 38.7935 31.1694L39.4464 34.0846C39.4619 34.1553 39.5047 34.1825 39.5743 34.167L44.1934 33.1333C44.3 33.1101 44.3852 33.1643 44.4105 33.2698L44.7476 34.7801C44.7709 34.8857 44.7166 34.9719 44.61 34.9953L39.9909 36.0289C39.9212 36.0443 39.894 36.0871 39.9097 36.1577L40.5858 39.1783C40.6012 39.2481 40.644 39.2762 40.7137 39.2607L46.1932 38.0343C46.2998 38.011 46.387 38.0653 46.4102 38.1709L46.7474 39.6812C46.7702 39.7859 46.7159 39.8731 46.6095 39.8963ZM56.6227 37.6565L49.1399 39.3305C49.0352 39.3537 48.948 39.2994 48.9248 39.1938L46.3324 27.6015C46.3072 27.4959 46.3634 27.4107 46.468 27.3863L53.9509 25.7132C54.0555 25.689 54.1408 25.7433 54.1659 25.8489L54.503 27.3592C54.5264 27.4648 54.4721 27.55 54.3675 27.5744L48.8881 28.7999C48.8164 28.8154 48.7894 28.859 48.8049 28.9297L49.4578 31.8447C49.4733 31.9154 49.516 31.9426 49.5876 31.9271L54.2067 30.8934C54.3113 30.8692 54.3966 30.9245 54.4219 31.0301L54.7589 32.5394C54.7823 32.646 54.728 32.7312 54.6234 32.7554L50.0043 33.7891C49.9326 33.8046 49.9054 33.8472 49.921 33.917L50.5972 36.9376C50.6126 37.0083 50.6554 37.0363 50.7271 37.02L56.2064 35.7944C56.311 35.7712 56.3982 35.8255 56.4216 35.9311L56.7588 37.4414C56.7816 37.5461 56.7273 37.6333 56.6227 37.6565Z" fill="#50FF62"/>
</g>
<defs>
<clipPath id="clip0_243_100">
<rect width="72" height="72" fill="white"/>
</clipPath>
</defs>
</svg>
