<svg width="52" height="52" viewBox="0 0 52 52" fill="none" xmlns="http://www.w3.org/2000/svg">
<g id="mastercard-icon 1" clip-path="url(#clip0_352_4)">
<g id="Group">
<path id="Vector" d="M9.41797 46.063V43.3849C9.41797 42.3579 8.79291 41.6886 7.76694 41.6886C7.22809 41.6886 6.65152 41.8675 6.24954 42.443C5.93701 41.9516 5.49515 41.6886 4.82159 41.6886C4.57116 41.6778 4.32195 41.7292 4.09627 41.8383C3.87058 41.9474 3.67546 42.1107 3.52835 42.3137V41.7748H2.68021V46.0598H3.52835V43.608C3.52835 42.8536 3.97452 42.4926 4.59959 42.4926C5.22465 42.4926 5.58137 42.8946 5.58137 43.608V46.063H6.42952V43.608C6.42952 42.8536 6.87568 42.4926 7.50075 42.4926C8.12581 42.4926 8.48253 42.8946 8.48253 43.608V46.063H9.41797ZM23.344 41.8223H21.7813V40.529H20.9353V41.8223H20.043V42.5767H20.9353V44.5898C20.9353 45.5716 21.292 46.1525 22.3633 46.1525C22.7691 46.144 23.1668 46.0367 23.5218 45.8399L23.2535 45.0855C23.0127 45.236 22.7334 45.3135 22.4495 45.3086C22.0033 45.3086 21.7802 45.0403 21.7802 44.5941V42.5422H23.3429V41.8277L23.344 41.8223ZM31.2888 41.6886C31.0578 41.6835 30.8294 41.7384 30.6259 41.8479C30.4225 41.9575 30.2509 42.118 30.1281 42.3137V41.7748H29.2799V46.0598H30.1281V43.6533C30.1281 42.9388 30.4848 42.4926 31.0657 42.4926C31.2617 42.5005 31.4562 42.5306 31.6455 42.582L31.9138 41.7781C31.7092 41.7265 31.4997 41.6965 31.2888 41.6886ZM19.2821 42.1348C18.836 41.8223 18.2109 41.6886 17.5417 41.6886C16.4704 41.6886 15.8012 42.1801 15.8012 43.0282C15.8012 43.7427 16.2926 44.1436 17.2291 44.2783L17.6753 44.3225C18.1667 44.412 18.4793 44.5909 18.4793 44.814C18.4793 45.1265 18.1225 45.3528 17.4522 45.3528C16.9404 45.3633 16.4391 45.2067 16.0243 44.9066L15.5781 45.5759C16.2032 46.0221 16.9619 46.1147 17.4102 46.1147C18.6603 46.1147 19.3296 45.5349 19.3296 44.731C19.3296 43.9766 18.7907 43.6156 17.8563 43.4808L17.4102 43.4367C17.0082 43.3925 16.6558 43.2578 16.6558 42.9905C16.6558 42.678 17.0125 42.4516 17.5039 42.4516C18.0428 42.4516 18.5752 42.6747 18.8435 42.8084L19.2821 42.1348ZM32.2264 43.9205C32.2264 45.2138 33.0745 46.1525 34.4583 46.1525C35.0833 46.1525 35.5295 46.0188 35.9757 45.661L35.5295 44.9918C35.2136 45.2476 34.8206 45.3893 34.4141 45.3938C33.6597 45.3938 33.0745 44.814 33.0745 43.9658C33.0745 43.1177 33.6522 42.5422 34.4141 42.5422C34.8206 42.5467 35.2136 42.6883 35.5295 42.9442L35.9757 42.2749C35.5295 41.9182 35.0833 41.7835 34.4583 41.7835C33.1187 41.694 32.2264 42.6316 32.2264 43.9259V43.9205ZM26.2451 41.6886C24.995 41.6886 24.1469 42.581 24.1469 43.9205C24.1469 45.2601 25.0392 46.1525 26.3335 46.1525C26.9632 46.1658 27.5781 45.9609 28.074 45.5727L27.6278 44.9476C27.2692 45.2255 26.8313 45.3818 26.3777 45.3938C25.7979 45.3938 25.1728 45.037 25.0845 44.2783H28.254V43.9216C28.254 42.582 27.45 41.6897 26.2451 41.6897V41.6886ZM26.201 42.4926C26.826 42.4926 27.2722 42.8946 27.3164 43.5638H24.9961C25.1297 42.9388 25.5349 42.4926 26.201 42.4926ZM14.6405 43.9205V41.7781H13.7923V42.3169C13.4798 41.915 13.038 41.6919 12.4086 41.6919C11.2037 41.6919 10.3103 42.6295 10.3103 43.9238C10.3103 45.2181 11.2026 46.1557 12.4086 46.1557C13.0337 46.1557 13.4798 45.9326 13.7923 45.5306V46.0695H14.6405V43.9205ZM11.2037 43.9205C11.2037 43.1166 11.6952 42.4926 12.5433 42.4926C13.3473 42.4926 13.8365 43.1177 13.8365 43.9205C13.8365 44.7687 13.2977 45.3485 12.5433 45.3485C11.6952 45.3927 11.2037 44.7234 11.2037 43.9205ZM44.1899 41.6886C43.9589 41.6835 43.7305 41.7384 43.527 41.8479C43.3236 41.9575 43.1521 42.118 43.0292 42.3137V41.7748H42.1811V46.0598H43.0281V43.6533C43.0281 42.9388 43.3849 42.4926 43.9657 42.4926C44.1618 42.5005 44.3562 42.5306 44.5455 42.582L44.8139 41.7781C44.6092 41.7265 44.3997 41.6965 44.1888 41.6886H44.1899ZM40.8868 43.9205V41.7781H40.0386V42.3169C39.7261 41.915 39.2842 41.6919 38.6548 41.6919C37.45 41.6919 36.5566 42.6295 36.5566 43.9238C36.5566 45.2181 37.4489 46.1557 38.6548 46.1557C39.2799 46.1557 39.7261 45.9326 40.0386 45.5306V46.0695H40.8868V43.9205ZM37.45 43.9205C37.45 43.1166 37.9414 42.4926 38.7896 42.4926C39.5935 42.4926 40.0828 43.1177 40.0828 43.9205C40.0828 44.7687 39.5439 45.3485 38.7896 45.3485C37.9414 45.3927 37.45 44.7234 37.45 43.9205ZM49.5019 43.9205V40.0818H48.6537V42.3137C48.3412 41.9117 47.8993 41.6886 47.27 41.6886C46.0651 41.6886 45.1717 42.6262 45.1717 43.9205C45.1717 45.2149 46.064 46.1525 47.27 46.1525C47.895 46.1525 48.3412 45.9294 48.6537 45.5274V46.0662H49.5019V43.9205ZM46.0651 43.9205C46.0651 43.1166 46.5565 42.4926 47.4047 42.4926C48.2086 42.4926 48.6979 43.1177 48.6979 43.9205C48.6979 44.7687 48.1591 45.3485 47.4047 45.3485C46.5554 45.3938 46.064 44.7245 46.064 43.9205H46.0651Z" fill="white"/>
<g id="Group_2">
<path id="Vector_2" d="M33.7891 9.28333H18.3004V34.5467H33.7891V9.28333Z" fill="#FF5F00"/>
<path id="Vector_3" d="M19.863 21.915C19.8636 19.4847 20.4139 17.0859 21.4729 14.8984C22.5318 12.7109 24.0719 10.7913 25.9779 9.28334C23.6076 7.4197 20.7607 6.26058 17.7627 5.9385C14.7648 5.61642 11.7366 6.14437 9.02454 7.46199C6.31245 8.77962 4.02581 10.8338 2.42602 13.3896C0.826229 15.9454 -0.0221558 18.8998 -0.0221558 21.915C-0.0221558 24.9303 0.826229 27.8847 2.42602 30.4405C4.02581 32.9963 6.31245 35.0505 9.02454 36.3681C11.7366 37.6857 14.7648 38.2137 17.7627 37.8916C20.7607 37.5695 23.6076 36.4104 25.9779 34.5467C24.0719 33.0388 22.5318 31.1192 21.4729 28.9317C20.4139 26.7441 19.8636 24.3454 19.863 21.915Z" fill="#EB001B"/>
<path id="Vector_4" d="M52.0011 21.9148C52.0032 24.9278 51.1574 27.8806 49.5602 30.4355C47.963 32.9904 45.679 35.0442 42.9695 36.362C40.2599 37.6798 37.2341 38.2084 34.2383 37.8873C31.2424 37.5663 28.3973 36.4085 26.0285 34.5465C27.9349 33.0389 29.4754 31.1194 30.5344 28.9318C31.5934 26.7442 32.1436 24.3452 32.1436 21.9148C32.1436 19.4843 31.5934 17.0854 30.5344 14.8978C29.4754 12.7102 27.9349 10.7906 26.0285 9.28308C28.3973 7.42105 31.2424 6.26329 34.2383 5.94223C37.2341 5.62117 40.2599 6.14977 42.9695 7.46756C45.679 8.78536 47.963 10.8392 49.5602 13.394C51.1574 15.9489 52.0032 18.9017 52.0011 21.9148Z" fill="#F79E1B"/>
</g>
</g>
</g>
<defs>
<clipPath id="clip0_352_4">
<rect width="52" height="52" fill="white"/>
</clipPath>
</defs>
</svg>
