<svg width="279" height="73" viewBox="0 0 279 73" fill="none" xmlns="http://www.w3.org/2000/svg"><path fill-rule="evenodd" clip-rule="evenodd" d="M1 0C0.447715 0 0 0.447715 0 1V43.5C0 44.0523 0.447715 44.5 1 44.5H7.86154C8.41382 44.5 8.86154 44.0523 8.86154 43.5V28.5C8.86154 27.9477 9.30925 27.5 9.86154 27.5H17.5H18.25C25.8439 27.5 32 21.3439 32 13.75C32 6.15609 25.8439 0 18.25 0H17.5H1ZM10 7.5C9.44772 7.5 9 7.94772 9 8.5V19C9 19.5523 9.44771 20 10 20H16.5H16.75C20.2018 20 23 17.2018 23 13.75C23 10.2982 20.2018 7.5 16.75 7.5H16.5H10Z" fill="#7A08FA"/><path fill-rule="evenodd" clip-rule="evenodd" d="M38 0C37.4477 0 37 0.447715 37 1V43.5C37 44.0523 37.4477 44.5 38 44.5H44.8615C45.4138 44.5 45.8615 44.0523 45.8615 43.5V28.5C45.8615 27.9477 46.3093 27.5 46.8615 27.5H54.5H55.25C62.8439 27.5 69 21.3439 69 13.75C69 6.15609 62.8439 0 55.25 0H54.5H38ZM47 7.5C46.4477 7.5 46 7.94772 46 8.5V19C46 19.5523 46.4477 20 47 20H53.5H53.75C57.2018 20 60 17.2018 60 13.75C60 10.2982 57.2018 7.5 53.75 7.5H53.5H47Z" fill="#7A08FA"/><path fill-rule="evenodd" clip-rule="evenodd" d="M74 47.5653V14.0653C74 13.513 74.4477 13.0653 75 13.0653H82C82.5523 13.0653 83 13.513 83 14.0653V17.5653C84.8612 14.4633 88.2134 12.5653 91.831 12.5653H94C98.6378 12.5653 102.92 15.0504 105.221 19.0771L105.388 19.3699C105.4 19.39 105.416 19.4047 105.434 19.414C106.737 21.7889 107.5 23.982 107.5 27.0653H107.518C107.506 27.2304 107.5 27.3972 107.5 27.5653V47.0653C107.5 62.4081 113.609 66.3474 125.827 61.8236C126.836 63.516 128.981 64.8621 131.744 65.6104C133.08 65.9721 134.578 66.2003 136.199 66.2604C113.365 80.9602 98 68.9691 98 47.0653V27.5653C98 23.6993 94.866 20.5653 91 20.5653H90C86.134 20.5653 83 23.6993 83 27.5653V47.5653C83 48.1176 82.5523 48.5653 82 48.5653H75C74.4477 48.5653 74 48.1176 74 47.5653ZM108.286 24.3389C109.453 22.0966 111.798 20.5653 114.5 20.5653H115.5C119.366 20.5653 122.5 23.6993 122.5 27.5653V47.5653C122.5 48.1176 122.948 48.5653 123.5 48.5653H130.5C131.052 48.5653 131.5 48.1176 131.5 47.5653V26.0653C131.5 18.6094 125.457 12.5653 118.001 12.5653H115.891C111.751 12.5653 107.978 14.8438 106.034 18.4379C107.125 20.3461 107.925 22.1554 108.286 24.3389ZM132.006 64.6452C129.447 63.9521 127.64 62.7726 126.779 61.459C127.721 61.0867 128.697 60.6669 129.707 60.201C129.895 60.1146 130.058 59.9633 130.161 59.7838C132.005 56.5433 133.231 54.1061 134.194 52.1918C136.361 47.8823 137.196 46.2225 140.758 44.011C144.2 47.2309 148.593 49.4995 154.731 49.5639C154.938 50.9442 154.797 52.5743 154.5 53.5653C153.258 57.7054 149.203 62.3719 141.658 64.8379C137.967 65.5298 134.63 65.3558 132.006 64.6452ZM154.557 48.5613C159.509 48.2142 161.864 47.3695 164.5 43.5653V47.5653C164.5 48.1176 164.948 48.5653 165.5 48.5653H172.5C173.052 48.5653 173.5 48.1176 173.5 47.5653V15.8548L165 31.0653C165 31.0653 165 34.0653 163.5 36.5653C162.417 38.3707 161.255 39.1564 159.904 39.8606C159.863 39.9155 159.812 39.963 159.749 39.999C159.395 40.2018 159.027 40.3647 158.647 40.491C158.599 40.5155 158.549 40.5403 158.5 40.5653L158.519 40.5323C156.266 41.2286 153.649 40.6598 151.478 39.4718C149.555 38.4198 147.868 36.8191 147.033 35.0117L147 35.0653C145.511 31.0954 146.699 27.1255 147.971 25.1108L148 25.0653C148.174 24.7944 148.351 24.5288 148.536 24.2703C149.83 22.4609 151.5 21.0028 155 20.5653L159.067 13.7875C139.703 8.40597 132 30.2424 140.865 42.7231C144.204 46.058 148.454 48.4509 154.557 48.5613ZM151.958 38.5946C149.889 37.4623 148.255 35.7294 147.691 33.9484L160 14.0653L167.5 2.56529L167.589 2.43126C169.215 -0.00735816 172.477 -0.726841 174.977 0.801464C177.496 2.34085 178.335 5.60405 176.87 8.16722L175.5 10.5653L173.632 13.8347C173.614 13.8658 173.598 13.8978 173.584 13.9305C173.565 13.9743 173.549 14.0193 173.536 14.0653H173.5L159.333 39.094C159.316 39.1001 159.299 39.1072 159.282 39.1154C159.271 39.1204 159.261 39.1258 159.251 39.1316C157.196 40.3102 154.382 39.921 151.958 38.5946Z" fill="#7A08FA"/><path d="M182.59 1.00689C182.59 0.451924 183.042 0.00310388 183.597 0.0069155L190.597 0.0549938C191.147 0.0587686 191.59 0.505366 191.59 1.05497V23.1916C191.59 24.139 192.785 24.5553 193.374 23.813L202.79 11.9404C202.98 11.7012 203.268 11.5618 203.574 11.5618H212.869C213.731 11.5618 214.189 12.5795 213.617 13.2248L200.179 28.3975C199.843 28.7765 199.843 29.3466 200.18 29.7249L214.111 45.3974C214.684 46.0423 214.226 47.0618 213.363 47.0618H204.061C203.763 47.0618 203.48 46.9289 203.29 46.6993L193.361 34.701C192.763 33.9791 191.59 34.4016 191.59 35.3386V45.5618C191.59 46.1141 191.143 46.5618 190.59 46.5618L183.59 46.5618C183.038 46.5618 182.59 46.1141 182.59 45.5618V1.00689Z" fill="#7A08FA"/><path fill-rule="evenodd" clip-rule="evenodd" d="M236 8.5C226.059 8.5 218 16.5589 218 26.5C218 36.4411 226.059 44.5 236 44.5C243.131 44.5 249.294 40.3527 252.208 34.3384C252.515 33.7059 252.034 33 251.331 33H244.355C243.97 33 243.624 33.2237 243.431 33.5562C242.059 35.9146 239.504 37.5 236.579 37.5H235.421C231.046 37.5 227.5 33.9537 227.5 29.5792C227.5 29.5355 227.535 29.5 227.579 29.5H243H244.421H252.905C253.393 29.5 253.813 29.1474 253.871 28.6625C253.956 27.9535 254 27.2318 254 26.5C254 16.5589 245.941 8.5 236 8.5ZM235.421 15.5C231.046 15.5 227.5 19.0463 227.5 23.4208C227.5 23.4645 227.535 23.5 227.579 23.5H244.421C244.465 23.5 244.5 23.4645 244.5 23.4208C244.5 19.0463 240.954 15.5 236.579 15.5H235.421Z" fill="#7A08FA"/><path d="M259.486 9.98592C259.494 9.43918 259.939 9 260.486 9H267.5C268.052 9 268.5 9.44772 268.5 10V14.171C268.5 14.2698 268.63 14.3075 268.686 14.226C271.365 10.3118 273.579 8.99774 277.939 8.58176C278.513 8.52705 279 8.98647 279 9.5626V17.156C279 17.8258 278.35 18.3067 277.685 18.2288C273.083 17.6899 268.5 21.2615 268.5 24V43.5C268.5 44.0523 268.052 44.5 267.5 44.5H260.014C259.456 44.5 259.006 44.0437 259.014 43.4859L259.486 9.98592Z" fill="#7A08FA"/></svg>