<?xml version="1.0" standalone="no"?> <svg id="ppmakerlogosvg" width="273" height="72" viewBox="0 0 273 72" fill="none" xmlns="http://www.w3.org/2000/svg" style="max-width:100%;max-height:100%"><path d="M271.5 22.2575V13C266.659 13.1273 264.339 14.2747 261 18.5V13H252V48H261" stroke="#7A08FA" stroke-linecap="round" stroke-linejoin="round" stroke-dasharray="0,0,0,80.14923095703125"><animate attributeType="XML" attributeName="stroke-dasharray" repeatCount="1" dur="3.5714285714285716s" values="0,0,0,80.14923095703125; 0,40.074615478515625,40.074615478515625,0; 80.14923095703125,0,0,0" keyTimes="0; 0.5; 1" fill="freeze"></animate></path><path d="M261 48V28C261 25 264 22.5 267 22.5H271.5" stroke="#7A08FA" stroke-linecap="round" stroke-linejoin="round" stroke-dasharray="0,0,0,33.46595764160156"><animate attributeType="XML" attributeName="stroke-dasharray" repeatCount="1" dur="3.5714285714285716s" values="0,0,0,33.46595764160156; 0,16.73297882080078,16.73297882080078,0; 33.46595764160156,0,0,0" keyTimes="0; 0.5; 1" fill="freeze"></animate></path><path d="M246 30.5V28.9127C246 19.8 238.613 12.4128 229.5 12.4128V12.4128V12.4128C219.835 12.4128 212 20.2478 212 29.9127V30.5" stroke="#7A08FA" stroke-linejoin="round" stroke-dasharray="0,0,0,55.58916091918945"><animate attributeType="XML" attributeName="stroke-dasharray" repeatCount="1" dur="3.5714285714285716s" values="0,0,0,55.58916091918945; 0,27.794580459594727,27.794580459594727,0; 55.58916091918945,0,0,0" keyTimes="0; 0.5; 1" fill="freeze"></animate></path><path d="M229 48.5C229.276 48.5 229.5 48.2761 229.5 48C229.5 47.7238 229.276 47.5 229 47.5V48.5ZM211.5 29.6077V31H212.5V29.6077H211.5ZM211.5 31C211.5 40.665 219.335 48.5 229 48.5V47.5C219.887 47.5 212.5 40.1127 212.5 31H211.5Z" fill="#7A08FA" stroke-dasharray="0,0,0,62.770301818847656"><animate attributeType="XML" attributeName="stroke-dasharray" repeatCount="1" dur="3.5714285714285716s" values="0,0,0,62.770301818847656; 0,31.385150909423828,31.385150909423828,0; 62.770301818847656,0,0,0" keyTimes="0; 0.5; 1" fill="freeze"></animate></path><path d="M246 36L246.452 36.214C246.525 36.0591 246.514 35.8775 246.423 35.7326C246.331 35.5878 246.171 35.5 246 35.5V36ZM236.5 36V35.5C236.339 35.5 236.187 35.578 236.093 35.7094L236.5 36ZM222 33C222 32.7239 221.776 32.5 221.5 32.5C221.224 32.5 221 32.7239 221 33H222ZM229 48.5C232.316 48.5 235.541 47.8616 238.517 45.9855C241.491 44.1101 244.172 41.0266 246.452 36.214L245.548 35.786C243.328 40.4734 240.759 43.3899 237.983 45.1395C235.209 46.8884 232.184 47.5 229 47.5V48.5ZM246 35.5H236.5V36.5H246V35.5ZM236.093 35.7094C234.85 37.4503 233.898 38.504 232.864 39.1359C231.848 39.7569 230.701 40 229 40V41C230.799 41 232.152 40.7431 233.386 39.9891C234.602 39.246 235.65 38.0497 236.907 36.2906L236.093 35.7094ZM229 40C225.276 40 222 36.7239 222 33H221C221 37.2761 224.724 41 229 41V40Z" fill="#7A08FA" stroke-dasharray="0,0,0,119.29955291748047"><animate attributeType="XML" attributeName="stroke-dasharray" repeatCount="1" dur="3.5714285714285716s" values="0,0,0,119.29955291748047; 0,59.649776458740234,59.649776458740234,0; 119.29955291748047,0,0,0" keyTimes="0; 0.5; 1" fill="freeze"></animate></path><path d="M221.5 33H246V30" stroke="#7A08FA" stroke-linecap="round" stroke-linejoin="round" stroke-dasharray="0,0,0,27.5"><animate attributeType="XML" attributeName="stroke-dasharray" repeatCount="1" dur="3.5714285714285716s" values="0,0,0,27.5; 0,13.75,13.75,0; 27.5,0,0,0" keyTimes="0; 0.5; 1" fill="freeze"></animate></path><path d="M236.5 27H221.5C221.5 23.134 224.634 20 228.5 20H229H229.5C233.366 20 236.5 23.134 236.5 27Z" stroke="#7A08FA" stroke-linecap="round" stroke-linejoin="round" stroke-dasharray="0,0,0,37.99433898925781"><animate attributeType="XML" attributeName="stroke-dasharray" repeatCount="1" dur="3.5714285714285716s" values="0,0,0,37.99433898925781; 0,18.997169494628906,18.997169494628906,0; 37.99433898925781,0,0,0" keyTimes="0; 0.5; 1" fill="freeze"></animate></path><path d="M179 48V2H188V27L199 13H211L195.5 30.5L211 48H199.5L188 33.5" stroke="#7A08FA" stroke-linecap="round" stroke-linejoin="round" stroke-dasharray="0,0,0,186.56591796875"><animate attributeType="XML" attributeName="stroke-dasharray" repeatCount="1" dur="3.5714285714285716s" values="0,0,0,186.56591796875; 0,93.282958984375,93.282958984375,0; 186.56591796875,0,0,0" keyTimes="0; 0.5; 1" fill="freeze"></animate></path><path d="M179 48H188V33.5" stroke="#7A08FA" stroke-linejoin="round" stroke-dasharray="0,0,0,23.5"><animate attributeType="XML" attributeName="stroke-dasharray" repeatCount="1" dur="3.5714285714285716s" values="0,0,0,23.5; 0,11.75,11.75,0; 23.5,0,0,0" keyTimes="0; 0.5; 1" fill="freeze"></animate></path><path d="M74.5 48V13H83.5V16.3789C83.5 16.6184 83.7836 16.7447 83.9616 16.5845V16.5845C89.3411 11.743 97.5434 11.8676 102.773 16.8701L104.77 18.7798C104.899 18.903 105.101 18.903 105.23 18.7798L107.286 16.8134C112.47 11.855 120.611 11.7686 125.899 16.6158L126.43 17.1027C127.788 18.347 128.806 19.9168 129.388 21.6637V21.6637C130.124 23.8734 130.5 26.1875 130.5 28.5168V48H121V27.2798C121 24.6708 119.483 22.2998 117.114 21.2065V21.2065C115.445 20.4363 113.533 20.3867 111.827 21.0693L111.585 21.166C108.816 22.2737 107 24.9557 107 27.9382V50C107.915 57.186 109.614 59.957 114 62C118.5 63.5 120.5 62.5 124 61C128.262 59.1607 130.51 57.0926 133 51C134.973 46.174 137.322 45.7039 139.738 42.8215C139.896 42.634 139.984 42.4756 139.837 42.2794V42.2794C133.669 34.0117 134.207 21.2026 142.814 15.5169C146.476 13.0979 151.391 12.5339 157.5 14L153 21C146.5 21 144.5 26.5 145 33.5L163.908 3.98459C164.91 2.42101 166.591 1.42204 168.444 1.28974V1.28974C170.884 1.11541 173.179 2.47015 174.204 4.69174V4.69174C175.015 6.44979 174.909 8.49457 173.921 10.1595L156.5 39.5C160.082 37.3319 161.57 35.6283 162 30.5L171.015 15V48H162V43.5C158.72 46.9578 156.51 47.8909 152 48C152.505 51.9268 152.168 54.5475 150.601 56.8566C148.021 60.6589 143.248 62.1435 138.83 63.4059L138.63 63.4629C136.215 64.1528 133.87 65.0652 131.624 66.1882L128.692 67.6541C125.598 69.2012 122.216 70.0892 118.761 70.2619V70.2619C115.615 70.4192 112.419 70.0833 109.565 68.7522C102.086 65.2648 99.3721 60.4305 98 50V27.6775C98 24.8399 96.3089 22.2752 93.7007 21.1574V21.1574C91.9715 20.4163 90.0187 20.3925 88.2719 21.0912L88.1532 21.1387C85.3428 22.2629 83.5 24.9848 83.5 28.0116V47.6361C83.5 47.8371 83.3371 48 83.1361 48H74.5Z" stroke="#7A08FA" stroke-linejoin="round" stroke-dasharray="0,0,0,648.452392578125"><animate attributeType="XML" attributeName="stroke-dasharray" repeatCount="1" dur="3.5714285714285716s" values="0,0,0,648.452392578125; 0,324.2261962890625,324.2261962890625,0; 648.452392578125,0,0,0" keyTimes="0; 0.5; 1" fill="freeze"></animate></path><path d="M145 33C145 38.5 152.5 41.5 156.5 39.5" stroke="#7A08FA" stroke-dasharray="0,0,0,15.316184043884277"><animate attributeType="XML" attributeName="stroke-dasharray" repeatCount="1" dur="3.5714285714285716s" values="0,0,0,15.316184043884277; 0,7.658092021942139,7.658092021942139,0; 15.316184043884277,0,0,0" keyTimes="0; 0.5; 1" fill="freeze"></animate></path><path d="M152 48C148 48 143 46 140 42.5" stroke="#7A08FA" stroke-dasharray="0,0,0,13.576238632202148"><animate attributeType="XML" attributeName="stroke-dasharray" repeatCount="1" dur="3.5714285714285716s" values="0,0,0,13.576238632202148; 0,6.788119316101074,6.788119316101074,0; 13.576238632202148,0,0,0" keyTimes="0; 0.5; 1" fill="freeze"></animate></path><path d="M138.5 63.5C131.5 65 127.516 63.9657 124 61" stroke="#7A08FA" stroke-linecap="round" stroke-dasharray="0,0,0,15.32515811920166"><animate attributeType="XML" attributeName="stroke-dasharray" repeatCount="1" dur="3.5714285714285716s" values="0,0,0,15.32515811920166; 0,7.66257905960083,7.66257905960083,0; 15.32515811920166,0,0,0" keyTimes="0; 0.5; 1" fill="freeze"></animate></path><path d="M105 19C106.556 21.6788 107.173 23.6865 107 27.5" stroke="#7A08FA" stroke-linecap="round" stroke-dasharray="0,0,0,8.88466739654541"><animate attributeType="XML" attributeName="stroke-dasharray" repeatCount="1" dur="3.5714285714285716s" values="0,0,0,8.88466739654541; 0,4.442333698272705,4.442333698272705,0; 8.88466739654541,0,0,0" keyTimes="0; 0.5; 1" fill="freeze"></animate></path><path d="M38 4.87404V48H47V31.5L56.058 31.2616C61.9865 31.1056 67.1406 27.1505 68.8254 21.4643L68.8786 21.2847C69.6099 18.8166 69.5962 16.1875 68.8391 13.7272C67.1516 8.24261 62.0842 4.5 56.3459 4.5H38.374C38.1675 4.5 38 4.66746 38 4.87404Z" stroke="#7A08FA" stroke-linejoin="round" stroke-dasharray="0,0,0,137.9354705810547"><animate attributeType="XML" attributeName="stroke-dasharray" repeatCount="1" dur="3.5714285714285716s" values="0,0,0,137.9354705810547; 0,68.96773529052734,68.96773529052734,0; 137.9354705810547,0,0,0" keyTimes="0; 0.5; 1" fill="freeze"></animate></path><path d="M47 12.2632V24H54.7805C56.2127 24 57.5977 23.4876 58.6852 22.5555C61.4789 20.161 61.4789 15.839 58.6852 13.4445C57.5977 12.5124 56.2127 12 54.7805 12H47.2632C47.1178 12 47 12.1178 47 12.2632Z" stroke="#7A08FA" stroke-linejoin="round" stroke-dasharray="0,0,0,46.300140380859375"><animate attributeType="XML" attributeName="stroke-dasharray" repeatCount="1" dur="3.5714285714285716s" values="0,0,0,46.300140380859375; 0,23.150070190429688,23.150070190429688,0; 46.300140380859375,0,0,0" keyTimes="0; 0.5; 1" fill="freeze"></animate></path><path d="M1 4.87404V48H10V31.5L19.058 31.2616C24.9865 31.1056 30.1406 27.1505 31.8254 21.4643L31.8786 21.2847C32.6099 18.8166 32.5962 16.1875 31.8391 13.7272C30.1516 8.24261 25.0842 4.5 19.3459 4.5H1.37404C1.16747 4.5 1 4.66746 1 4.87404Z" stroke="#7A08FA" stroke-linejoin="round" stroke-dasharray="0,0,0,137.9354705810547"><animate attributeType="XML" attributeName="stroke-dasharray" repeatCount="1" dur="3.5714285714285716s" values="0,0,0,137.9354705810547; 0,68.96773529052734,68.96773529052734,0; 137.9354705810547,0,0,0" keyTimes="0; 0.5; 1" fill="freeze"></animate></path><path d="M10 12.2632V24H17.7805C19.2127 24 20.5977 23.4876 21.6852 22.5555C24.4789 20.161 24.4789 15.839 21.6852 13.4445C20.5977 12.5124 19.2127 12 17.7805 12H10.2632C10.1178 12 10 12.1178 10 12.2632Z" stroke="#7A08FA" stroke-linejoin="round" stroke-dasharray="0,0,0,46.30012512207031"><animate attributeType="XML" attributeName="stroke-dasharray" repeatCount="1" dur="3.5714285714285716s" values="0,0,0,46.30012512207031; 0,23.150062561035156,23.150062561035156,0; 46.30012512207031,0,0,0" keyTimes="0; 0.5; 1" fill="freeze"></animate></path><setting>{"type":"direct","speed":14,"random":1,"shift":1,"size":1,"rupture":50}</setting></svg>