<svg width="28" height="28" viewBox="0 0 28 28" fill="none" xmlns="http://www.w3.org/2000/svg">
<g clip-path="url(#clip0_194_82)">
<path d="M21 14C21 17.866 17.866 21 14 21C10.134 21 7 17.866 7 14C7 10.134 10.134 7 14 7C17.866 7 21 10.134 21 14Z" stroke="#FF9B50" stroke-width="2"/>
<path fill-rule="evenodd" clip-rule="evenodd" d="M14 0C14.5394 0 14.9767 0.437308 14.9767 0.976744V2.27907C14.9767 2.81851 14.5394 3.25581 14 3.25581C13.4606 3.25581 13.0233 2.81851 13.0233 2.27907V0.976744C13.0233 0.437308 13.4606 0 14 0ZM4.10052 4.10052C4.48195 3.71908 5.1004 3.71908 5.48184 4.10052L5.99345 4.61212C6.37488 4.99356 6.37488 5.61199 5.99345 5.99345C5.61199 6.37488 4.99356 6.37488 4.61212 5.99345L4.10052 5.48184C3.71908 5.1004 3.71908 4.48195 4.10052 4.10052ZM23.8991 4.10085C24.2806 4.48229 24.2806 5.10074 23.8991 5.48218L23.3876 5.99378C23.0061 6.37522 22.3876 6.37522 22.0062 5.99378C21.6247 5.61233 21.6247 4.9939 22.0062 4.61246L22.5179 4.10085C22.8993 3.71942 23.5177 3.71942 23.8991 4.10085ZM0 14C0 13.4606 0.437308 13.0233 0.976744 13.0233H2.27907C2.81851 13.0233 3.25581 13.4606 3.25581 14C3.25581 14.5394 2.81851 14.9767 2.27907 14.9767H0.976744C0.437308 14.9767 0 14.5394 0 14ZM24.7442 14C24.7442 13.4606 25.1815 13.0233 25.7209 13.0233H27.0233C27.5627 13.0233 28 13.4606 28 14C28 14.5394 27.5627 14.9767 27.0233 14.9767H25.7209C25.1815 14.9767 24.7442 14.5394 24.7442 14ZM22.0062 22.0062C22.3876 21.6247 23.0061 21.6247 23.3876 22.0062L23.8991 22.5179C24.2806 22.8993 24.2806 23.5177 23.8991 23.8991C23.5177 24.2806 22.8993 24.2806 22.5179 23.8991L22.0062 23.3876C21.6247 23.0061 21.6247 22.3876 22.0062 22.0062ZM5.99345 22.0066C6.37488 22.388 6.37488 23.0065 5.99345 23.3879L5.48184 23.8995C5.1004 24.2809 4.48195 24.2809 4.10052 23.8995C3.71908 23.518 3.71908 22.8996 4.10052 22.5181L4.61212 22.0066C4.99356 21.6251 5.61199 21.6251 5.99345 22.0066ZM14 24.7442C14.5394 24.7442 14.9767 25.1815 14.9767 25.7209V27.0233C14.9767 27.5627 14.5394 28 14 28C13.4606 28 13.0233 27.5627 13.0233 27.0233V25.7209C13.0233 25.1815 13.4606 24.7442 14 24.7442Z" fill="#FF9B50"/>
</g>
<defs>
<clipPath id="clip0_194_82">
<rect width="28" height="28" fill="white"/>
</clipPath>
</defs>
</svg>
