<svg width="72" height="72" viewBox="0 0 72 72" fill="none" xmlns="http://www.w3.org/2000/svg">
<path opacity="0.5" d="M11.5336 11.5336C8.15547 14.9117 8.15547 20.3887 11.5336 23.7668L16.2968 28.53C16.3326 28.4887 17.9607 30.039 18 29.9997L30 17.9997C30.0393 17.9605 28.4887 16.3325 28.53 16.2968L23.7668 11.5336C20.3887 8.15547 14.9117 8.15547 11.5336 11.5336Z" fill="#FF9B50"/>
<path opacity="0.5" d="M15.3996 45.9216C15.8824 44.6928 17.615 44.6928 18.0978 45.9216L18.5686 47.1195C18.716 47.4948 19.0119 47.7918 19.3856 47.9397L20.5793 48.4122C21.8035 48.8967 21.8035 50.6358 20.5793 51.1203L19.3856 51.5928C19.0119 51.7407 18.716 52.0377 18.5686 52.413L18.0978 53.6109C17.615 54.8397 15.8824 54.8397 15.3996 53.6109L14.9288 52.413C14.7814 52.0377 14.4856 51.7407 14.1118 51.5928L12.9182 51.1203C11.6939 50.6358 11.6939 48.8967 12.9182 48.4122L14.1118 47.9397C14.4856 47.7918 14.7814 47.4948 14.9288 47.1195L15.3996 45.9216Z" fill="#FF9B50"/>
<path opacity="0.2" d="M59.9016 27.3884C60.3843 26.1596 62.1171 26.1596 62.5998 27.3884L63.0705 28.5864C63.2181 28.9616 63.5139 29.2585 63.8877 29.4065L65.0811 29.879C66.3054 30.3636 66.3054 32.1027 65.0811 32.5872L63.8877 33.0597C63.5139 33.2076 63.2181 33.5046 63.0705 33.8796L62.5998 35.0778C62.1171 36.3066 60.3843 36.3066 59.9016 35.0778L59.4309 33.8796C59.2833 33.5046 58.9875 33.2076 58.6137 33.0597L57.42 32.5872C56.196 32.1027 56.196 30.3636 57.42 29.879L58.6137 29.4065C58.9875 29.2585 59.2833 28.9616 59.4309 28.5864L59.9016 27.3884Z" fill="#FF9B50"/>
<path opacity="0.7" d="M48.3 6.92158C48.783 5.69281 50.5155 5.69281 50.9982 6.92158L52.2894 10.2074C52.437 10.5826 52.7328 10.8795 53.1066 11.0275L56.3802 12.3234C57.6045 12.808 57.6045 14.547 56.3802 15.0316L53.1066 16.3276C52.7328 16.4755 52.437 16.7725 52.2894 17.1476L50.9985 20.4335C50.5155 21.6622 48.783 21.6622 48.3 20.4335L47.0091 17.1476C46.8615 16.7725 46.5657 16.4755 46.1919 16.3276L42.9183 15.0316C41.694 14.547 41.694 12.808 42.9183 12.3234L46.1919 11.0275C46.5657 10.8795 46.8615 10.5826 47.0091 10.2074L48.3 6.92158Z" fill="#FF9B50"/>
<path d="M31.7043 19.47C31.6686 19.5112 30.0399 17.9601 30.0006 17.9993L18.0007 29.9993C17.9615 30.0384 19.5124 31.6674 19.4711 31.7031L48.234 60.4659C51.612 63.8442 57.0891 63.8442 60.4671 60.4659C63.8454 57.0879 63.8454 51.6108 60.4671 48.2328L31.7043 19.47Z" fill="#FF9B50"/>
</svg>
