<svg width="28" height="28" viewBox="0 0 28 28" fill="none" xmlns="http://www.w3.org/2000/svg">
<g id="moon-icon 1">
<path id="Vector" d="M24.7916 14C24.7916 19.96 19.96 24.7916 14 24.7916V26.5416C20.9266 26.5416 26.5416 20.9266 26.5416 14H24.7916ZM14 24.7916C8.03991 24.7916 3.20831 19.96 3.20831 14H1.45831C1.45831 20.9266 7.07341 26.5416 14 26.5416V24.7916ZM3.20831 14C3.20831 8.03991 8.03991 3.20831 14 3.20831V1.45831C7.07341 1.45831 1.45831 7.07341 1.45831 14H3.20831ZM18.0833 16.625C14.3784 16.625 11.375 13.6215 11.375 9.91665H9.62498C9.62498 14.5881 13.4119 18.375 18.0833 18.375V16.625ZM23.8295 13.3805C22.6534 15.3268 20.5195 16.625 18.0833 16.625V18.375C21.1574 18.375 23.8475 16.7345 25.3274 14.2855L23.8295 13.3805ZM11.375 9.91665C11.375 7.48044 12.6731 5.34658 14.6195 4.17043L13.7145 2.67264C11.2654 4.1525 9.62498 6.84258 9.62498 9.91665H11.375ZM14 3.20831C13.8967 3.20831 13.7756 3.16174 13.6878 3.07027C13.6133 2.99279 13.5961 2.91949 13.592 2.88985C13.5871 2.85349 13.5895 2.74814 13.7145 2.67264L14.6195 4.17043C15.2065 3.81574 15.3953 3.16629 15.3262 2.65563C15.2546 2.12478 14.836 1.45831 14 1.45831V3.20831ZM25.3274 14.2855C25.2518 14.4104 25.1464 14.4129 25.1101 14.408C25.0805 14.4039 25.0071 14.3866 24.9297 14.3122C24.8382 14.2243 24.7916 14.1032 24.7916 14H26.5416C26.5416 13.1639 25.8751 12.7453 25.3443 12.6737C24.8336 12.6046 24.1842 12.7934 23.8295 13.3805L25.3274 14.2855Z" fill="#FF9B50"/>
</g>
</svg>
