<svg width="20" height="20" viewBox="0 0 20 20" fill="none" xmlns="http://www.w3.org/2000/svg">
<path d="M14.2792 16.1847C14.1078 16.3429 13.8781 16.4305 13.6398 16.4285C13.4014 16.4265 13.1734 16.3352 13.0048 16.1741C12.8363 16.013 12.7407 15.7951 12.7386 15.5672C12.7365 15.3394 12.8282 15.1199 12.9938 14.9561L16.8965 11.226H0.9091C0.667992 11.226 0.436758 11.1345 0.266269 10.9715C0.0957798 10.8086 0 10.5876 0 10.3571C0 10.1267 0.0957798 9.90569 0.266269 9.74275C0.436758 9.5798 0.667992 9.48826 0.9091 9.48826H16.8965L12.9938 5.75819C12.8282 5.59432 12.7365 5.37484 12.7386 5.14703C12.7407 4.91921 12.8363 4.70129 13.0048 4.54019C13.1734 4.3791 13.4014 4.28772 13.6398 4.28574C13.8781 4.28376 14.1078 4.37134 14.2792 4.52961L19.7338 9.74284C19.9043 9.90578 20 10.1267 20 10.3571C20 10.5875 19.9043 10.8085 19.7338 10.9714L14.2792 16.1847Z" fill="white"/>
</svg>
