<svg width="24" height="24" viewBox="0 0 24 24" fill="none" xmlns="http://www.w3.org/2000/svg">
<g clip-path="url(#clip0_304_25)">
<path d="M14.8434 16.8159L16.4689 15.1896C16.7191 14.9364 17.017 14.7352 17.3452 14.598C17.6736 14.4608 18.0259 14.3902 18.3816 14.3902C18.7375 14.3902 19.0898 14.4608 19.4182 14.598C19.7464 14.7352 20.0443 14.9364 20.2943 15.1896L22.2009 17.0971C22.4541 17.3473 22.6551 17.645 22.7922 17.9735C22.9294 18.3019 23 18.6545 23 19.0105C23 19.3665 22.9294 19.719 22.7922 20.0475C22.6551 20.3759 22.4541 20.6736 22.2009 20.9238L21.3332 21.8041C20.7353 22.4081 19.962 22.8079 19.1236 22.9462C18.2852 23.0845 17.4246 22.9545 16.6645 22.5745C10.1238 19.2062 4.79629 13.8808 1.424 7.3402C1.04382 6.579 0.91473 5.71678 1.05528 4.87756C1.19583 4.03832 1.59878 3.2652 2.20621 2.66953L3.07391 1.78924C3.58225 1.28377 4.26988 1 4.98661 1C5.70335 1 6.39098 1.28377 6.89932 1.78924L8.81815 3.70891C9.32342 4.21746 9.60704 4.90529 9.60704 5.62232C9.60704 6.33934 9.32342 7.02716 8.81815 7.53572L7.19263 9.16196C8.26742 10.6164 9.448 11.9893 10.7247 13.2699C11.9941 14.542 13.3587 15.7152 14.8068 16.7792L14.8434 16.8159Z" stroke="black" stroke-width="2" stroke-linecap="round" stroke-linejoin="round"/>
</g>
<defs>
<clipPath id="clip0_304_25">
<rect width="24" height="24" fill="white"/>
</clipPath>
</defs>
</svg>
