<svg width="120" height="120" viewBox="0 0 120 120" fill="none" xmlns="http://www.w3.org/2000/svg">
<g clip-path="url(#clip0_254_109)">
<path fill-rule="evenodd" clip-rule="evenodd" d="M98.8865 22.149C104.326 19.8586 110.158 24.4583 109.197 30.2817L97.8525 99.0653C96.7585 105.697 89.4745 109.503 83.39 106.198C78.2985 103.432 70.7445 99.1758 63.9365 94.7273C60.537 92.5058 50.1275 85.3828 51.407 80.3123C52.501 75.9768 70.0005 59.6873 80.0005 49.9998C83.9285 46.1944 82.1395 43.9961 77.5005 47.4998C65.9925 56.1913 47.5166 69.4058 41.4068 73.1248C36.0162 76.4058 33.2016 76.9658 29.8443 76.4058C23.7137 75.3843 18.0298 73.8023 13.3894 71.8788C7.11755 69.2788 7.42305 60.6598 13.3852 58.1498L98.8865 22.149Z" fill="white"/>
</g>
<defs>
<clipPath id="clip0_254_109">
<rect width="120" height="120" fill="white"/>
</clipPath>
</defs>
</svg>
